<?xml version="1.0" ?><svg style="enable-background:new 0 0 48 48;" version="1.1" viewBox="0 0 48 48" xml:space="preserve" xmlns="http://www.w3.org/2000/svg" xmlns:xlink="http://www.w3.org/1999/xlink"><g id="Padding__x26__Artboard"/><g id="Icons"><g><path d="M22.45044,20.09302c-0.19336,0-0.3501,0.15674-0.3501,0.3501v0.65771    c0,0.19336,0.15674,0.3501,0.3501,0.3501s0.3501-0.15674,0.3501-0.3501v-0.65771    C22.80054,20.24976,22.6438,20.09302,22.45044,20.09302z" style="fill:none;"/><path d="M22.45044,14.24146c-0.19336,0-0.3501,0.15674-0.3501,0.3501v4.60254    c0,0.19336,0.15674,0.3501,0.3501,0.3501s0.3501-0.15674,0.3501-0.3501v-4.60254    C22.80054,14.39819,22.6438,14.24146,22.45044,14.24146z" style="fill:none;"/><path d="M24.29614,29.18372h-0.52246h-0.7002v1.64612c0,0.00409,0.0022,0.00745,0.00232,0.01147    l0.00305,3.92749l0.61719,3.49365c0.02979,0.16699,0.1748,0.28906,0.34473,0.28906h0.00049    c0.16992-0.00049,0.31543-0.12305,0.34424-0.29053l0.61084-3.55322v-3.87793v-1.64612H24.29614z" style="fill:#303030;"/><path d="M32.43774,27.63892c0-0.46875-0.09717-0.94482-0.28125-1.37646    c-0.17773-0.4165-0.44336-0.80713-0.76807-1.12939c-0.24463-0.24219-0.53174-0.45117-0.87891-0.63818    c-0.20215-0.10889-0.4126-0.17285-0.61621-0.23486c-0.1123-0.03418-0.22461-0.06787-0.33203-0.11035    c-0.90381-0.35742-1.63721-0.86035-2.11963-1.45459c-0.15625-0.19189-0.16016-0.36523-0.15381-0.70752l0.00244-0.18115    l-0.00342-7.68945c0.00684-0.021,0.04443-0.07422,0.10547-0.16162c0.06982-0.10303,0.14551-0.20264,0.22705-0.2959    c0.16162-0.18604,0.3457-0.3501,0.5459-0.48682c0.15918-0.1084,0.32812-0.20166,0.50293-0.28027    c0.11523-0.05225,0.23877-0.07861,0.36182-0.10693l0.11084-0.02637c0.2334-0.05811,0.43994-0.15771,0.61475-0.2959    c0.24268-0.19336,0.42871-0.44727,0.53662-0.73486c0.07129-0.18896,0.10742-0.38818,0.10742-0.59082    c0-0.93115-0.75781-1.68896-1.68945-1.68896h-9.43262c-0.91553,0-1.68896,0.77344-1.68896,1.68896    c0,0.66943,0.41992,1.29346,1.04395,1.55273c0.11279,0.04688,0.23047,0.08105,0.35059,0.10156    c0.22217,0.0376,0.44092,0.15527,0.62598,0.26562c0.2041,0.12109,0.39062,0.26465,0.55518,0.42578    c0.11523,0.1123,0.22021,0.23535,0.36328,0.43066c0.04053,0.0542,0.1167,0.15527,0.12451,0.18701l-0.00098,0.64209l0.00146,7.375    c0.00293,0.20605,0.00146,0.30908-0.06836,0.4082c-0.52246,0.73828-1.40039,1.35645-2.3877,1.68896    c-0.59424,0.16113-1.14648,0.47656-1.60254,0.91943c-0.66504,0.6792-1.03174,1.56836-1.03174,2.50439    c0,0.06824,0.00555,0.14355,0.01282,0.2157c-0.00006,0.00195-0.0011,0.00354-0.0011,0.00549    c0,0.00354,0.00189,0.00647,0.00201,0.01001c0.00183,0.01593,0.00037,0.0329,0.00287,0.0481    c0.00128,0.00751,0.00891,0.01129,0.01062,0.01862c0.0166,0.07166,0.05066,0.13477,0.1037,0.18207    c0.0069,0.00623,0.01434,0.00909,0.02179,0.01471c0.05896,0.0451,0.12915,0.0766,0.20911,0.0766h7.14941h0.7002h0.52246h0.7002    h0.604h6.47559c0.07996,0,0.15015-0.03149,0.20911-0.0766c0.00745-0.00562,0.01489-0.00848,0.02179-0.01471    c0.05304-0.0473,0.0871-0.11041,0.1037-0.18207c0.00171-0.00732,0.00934-0.01111,0.01062-0.01862    c0.0025-0.0152,0.00104-0.03217,0.00287-0.0481c0.00012-0.00354,0.00201-0.00647,0.00201-0.01001    c0-0.00195-0.00104-0.00354-0.0011-0.00549C32.43219,27.78247,32.43774,27.70715,32.43774,27.63892z M22.10034,21.10083v-0.65771    c0-0.19336,0.15674-0.3501,0.3501-0.3501s0.3501,0.15674,0.3501,0.3501v0.65771c0,0.19336-0.15674,0.3501-0.3501,0.3501    S22.10034,21.29419,22.10034,21.10083z M22.80054,19.19409c0,0.19336-0.15674,0.3501-0.3501,0.3501s-0.3501-0.15674-0.3501-0.3501    v-4.60254c0-0.19336,0.15674-0.3501,0.3501-0.3501s0.3501,0.15674,0.3501,0.3501V19.19409z" style="fill:#303030;"/></g></g></svg>